<svg width="101" height="26" viewBox="0 0 101 26" fill="none" xmlns="http://www.w3.org/2000/svg" aria-hidden="true">
<path d="M85.1918 3.41158C85.1918 3.96387 85.6395 4.41158 86.1918 4.41158H87.1628C87.7151 4.41158 88.1628 4.8593 88.1628 5.41158V6.95266C88.1628 7.50495 87.7151 7.95266 87.1628 7.95266H86.1918C85.6395 7.95266 85.1918 8.40038 85.1918 8.95266V14.1348C85.1918 14.755 85.3319 15.1951 85.612 15.4552C85.8921 15.7153 86.3322 15.8453 86.9324 15.8453C87.5537 15.8453 88.1628 16.3438 88.1628 16.9651V18.358C88.1628 18.7626 87.9201 19.1356 87.5259 19.2266C87.0635 19.3333 86.5256 19.3866 85.9121 19.3866C84.4716 19.3866 83.3311 18.9865 82.4908 18.1862C81.6505 17.366 81.2304 16.2455 81.2304 14.8251V8.95266C81.2304 8.40038 80.7827 7.95266 80.2304 7.95266H79.5596C79.0073 7.95266 78.5596 7.50495 78.5596 6.95266V5.42005C78.5596 4.86777 79.0073 4.42005 79.5596 4.42005H80.5894C81.1417 4.42005 81.5894 3.97234 81.5894 3.42005V2.1355C81.5898 2.11402 81.5905 2.09243 81.5905 2.07071V1C81.5905 0.447715 82.0382 0 82.5905 0H84.1918C84.7441 0 85.1918 0.447715 85.1918 1V3.41158Z" fill="white"/>
<path d="M89.007 15.9757C88.8439 15.4831 89.188 14.9984 89.6949 14.8872L91.0805 14.5834C91.6795 14.452 92.238 14.9139 92.5546 15.4391C92.6658 15.6238 92.8044 15.7954 92.9702 15.954C93.4504 16.3742 94.1006 16.5842 94.9209 16.5842C95.5411 16.5842 96.0213 16.4442 96.3614 16.1641C96.7015 15.884 96.8716 15.5339 96.8716 15.1137C96.8716 14.3735 96.3414 13.8933 95.281 13.6732L93.3304 13.2231C91.9499 12.923 90.9095 12.3828 90.2093 11.6026C89.5291 10.8223 89.189 9.89197 89.189 8.81161C89.189 7.47116 89.7091 6.33077 90.7495 5.39046C91.8098 4.45014 93.1303 3.97998 94.7108 3.97998C95.7112 3.97998 96.5915 4.13003 97.3517 4.43013C98.112 4.71023 98.7022 5.08035 99.1223 5.54051C99.5425 5.98066 99.8626 6.43081 100.083 6.89096C100.157 7.04634 100.222 7.20058 100.278 7.35368C100.457 7.84102 100.114 8.32898 99.6077 8.44301L98.2168 8.75627C97.6516 8.88357 97.1075 8.48218 96.7799 8.00429C96.6861 7.86739 96.5766 7.73636 96.4514 7.61121C96.0713 7.21107 95.5011 7.011 94.7408 7.011C94.2207 7.011 93.7705 7.15105 93.3904 7.43114C93.0303 7.71124 92.8502 8.06136 92.8502 8.4815C92.8502 9.20174 93.3003 9.64189 94.2007 9.80194L96.3014 10.2521C97.7218 10.5522 98.8022 11.1024 99.5425 11.9027C100.303 12.7029 100.683 13.6632 100.683 14.7836C100.683 16.1041 100.183 17.2445 99.1823 18.2048C98.182 19.1651 96.7715 19.6453 94.9509 19.6453C93.9106 19.6453 92.9802 19.4952 92.16 19.1951C91.3397 18.875 90.6995 18.4749 90.2393 17.9947C89.7992 17.4945 89.4591 17.0044 89.219 16.5242C89.1373 16.3386 89.0667 16.1558 89.007 15.9757Z" fill="white"/>
<path d="M68.7843 10.7179V18.2108C68.7843 18.7631 68.3366 19.2108 67.7843 19.2108H65.793C65.2407 19.2108 64.793 18.7631 64.793 18.2108V5.44579C64.793 4.89351 65.2407 4.4458 65.793 4.4458H67.6643C68.2166 4.4458 68.6643 4.89351 68.6643 5.44579V6.27641C69.0844 5.55617 69.6846 5.00598 70.4649 4.62586C71.2451 4.24573 72.0654 4.05566 72.9257 4.05566C74.6663 4.05566 75.9867 4.60585 76.887 5.70622C77.8074 6.78658 78.2675 8.18706 78.2675 9.90764V18.2108C78.2675 18.7631 77.8198 19.2108 77.2675 19.2108H75.2762C74.7239 19.2108 74.2762 18.7631 74.2762 18.2108V10.5979C74.2762 9.71757 74.0461 9.00733 73.5859 8.46715C73.1458 7.92697 72.4656 7.65688 71.5452 7.65688C70.705 7.65688 70.0347 7.94698 69.5346 8.52717C69.0344 9.10737 68.7843 9.83761 68.7843 10.7179Z" fill="white"/>
<path d="M0 15.1796C0 13.9192 0.410138 12.9088 1.23041 12.1486C2.05069 11.3883 3.11105 10.9082 4.41149 10.7081L8.04271 10.1679C8.78296 10.0679 9.15309 9.71777 9.15309 9.11757C9.15309 8.55738 8.93301 8.09723 8.49286 7.7371C8.07272 7.37698 7.46252 7.19692 6.66225 7.19692C5.82196 7.19692 5.15174 7.427 4.65157 7.88716C4.45048 8.07986 4.28624 8.29187 4.15884 8.52317C3.86934 9.04878 3.32414 9.48816 2.73711 9.36379L1.18529 9.03502C0.682756 8.92855 0.331065 8.45347 0.482225 7.96253C0.766339 7.03977 1.33584 6.20437 2.19074 5.45634C3.31112 4.47601 4.79162 3.98584 6.63224 3.98584C8.83298 3.98584 10.4535 4.51602 11.4939 5.57638C12.5342 6.61673 13.0544 7.95718 13.0544 9.59773V16.8602C13.0544 17.2676 13.0673 17.6535 13.093 18.0181C13.1367 18.6383 12.6643 19.201 12.0425 19.201H10.3715C9.90456 19.201 9.49782 18.877 9.4593 18.4117C9.43522 18.1207 9.42318 17.7936 9.42318 17.4304C8.48286 18.8909 7.03237 19.6211 5.07171 19.6211C3.5512 19.6211 2.32078 19.181 1.38047 18.3007C0.460155 17.4204 0 16.38 0 15.1796ZM5.91199 16.6501C6.85231 16.6501 7.62257 16.39 8.22277 15.8698C8.84298 15.3297 9.15309 14.4494 9.15309 13.229V12.5687L5.82196 13.0789C4.60155 13.259 3.99135 13.8792 3.99135 14.9395C3.99135 15.4197 4.1614 15.8298 4.50152 16.1699C4.84163 16.4901 5.31179 16.6501 5.91199 16.6501Z" fill="#BD35D8"/>
<path d="M21.9411 4.32627C22.4548 4.32998 22.8439 4.77743 22.8439 5.29118V7.19919C22.8439 7.82431 22.2686 8.28751 21.6435 8.28751C20.5031 8.28751 19.5828 8.61762 18.8825 9.27784C18.1823 9.91806 17.8322 10.9784 17.8322 12.4589V18.2112C17.8322 18.7635 17.3845 19.2112 16.8322 19.2112H14.8408C14.2885 19.2112 13.8408 18.7635 13.8408 18.2112V5.44621C13.8408 4.89393 14.2885 4.44621 14.8408 4.44621H16.7121C17.2644 4.44621 17.7121 4.89393 17.7121 5.44621V6.63695C18.4324 5.09643 19.8328 4.32617 21.9135 4.32617C21.9226 4.32617 21.9318 4.32621 21.9411 4.32627Z" fill="#BD35D8"/>
<path d="M33.5411 20.8477C33.3883 20.3625 33.7131 19.8791 34.2046 19.7481L35.8841 19.3002C36.4526 19.1486 37.0131 19.533 37.288 20.0532C37.4829 20.4222 37.7481 20.7473 38.0834 21.0285C38.7036 21.5487 39.4739 21.8088 40.3942 21.8088C43.0151 21.8088 44.3255 20.4383 44.3255 17.6974V16.617C43.9854 17.1572 43.4652 17.6074 42.765 17.9675C42.0647 18.3276 41.2145 18.5077 40.2141 18.5077C38.2535 18.5077 36.6129 17.8274 35.2925 16.467C33.992 15.1065 33.3418 13.3959 33.3418 11.3352C33.3418 9.33457 33.992 7.63399 35.2925 6.23352C36.5929 4.83305 38.2334 4.13281 40.2141 4.13281C41.2945 4.13281 42.1948 4.33288 42.915 4.73302C43.6353 5.11314 44.1354 5.5833 44.4155 6.14349V5.40291C44.4155 4.85062 44.8632 4.4029 45.4155 4.4029H47.2568C47.8091 4.4029 48.2568 4.85062 48.2568 5.4029V17.5773C48.2568 19.7981 47.6166 21.6387 46.3362 23.0992C45.0557 24.5797 43.1151 25.32 40.5142 25.32C38.5736 25.32 36.943 24.7998 35.6226 23.7594C34.5846 22.929 33.8907 21.9585 33.5411 20.8477ZM40.9043 15.0865C41.9247 15.0865 42.755 14.7464 43.3952 14.0662C44.0554 13.3859 44.3855 12.4756 44.3855 11.3352C44.3855 10.2149 44.0454 9.31456 43.3652 8.63433C42.705 7.9541 41.8847 7.61399 40.9043 7.61399C39.884 7.61399 39.0337 7.9541 38.3535 8.63433C37.6933 9.31456 37.3632 10.2149 37.3632 11.3352C37.3632 12.4756 37.6933 13.3859 38.3535 14.0662C39.0137 14.7464 39.864 15.0865 40.9043 15.0865Z" fill="white"/>
<path d="M53.6803 9.06956C53.4408 9.59068 53.9106 10.0881 54.4841 10.0881H58.9808C59.5523 10.0881 60.0271 9.59676 59.8205 9.06403C59.6697 8.67553 59.4397 8.32665 59.1305 8.01741C58.5903 7.45722 57.7901 7.17713 56.7297 7.17713C55.7694 7.17713 54.9891 7.47723 54.3889 8.07743C54.0771 8.38924 53.8409 8.71995 53.6803 9.06956ZM60.004 14.7752C60.2965 14.3328 60.8184 14.0476 61.3267 14.1987L62.7963 14.6356C63.3246 14.7927 63.6341 15.3527 63.3995 15.8514C62.9531 16.8005 62.2804 17.6103 61.3813 18.2809C60.2209 19.1612 58.7704 19.6013 57.0298 19.6013C54.9091 19.6013 53.1085 18.8911 51.628 17.4706C50.1475 16.0301 49.4072 14.1095 49.4072 11.7087C49.4072 9.42789 50.1275 7.56726 51.568 6.12677C53.0084 4.66628 54.709 3.93604 56.6697 3.93604C58.9504 3.93604 60.731 4.61626 62.0115 5.97672C63.3119 7.33718 63.9621 9.20781 63.9621 11.5886C63.9621 11.7487 63.9521 11.9287 63.9321 12.1288C63.9321 12.3201 63.9321 12.4748 63.9321 12.5929C63.9321 12.6036 63.9314 12.6143 63.9299 12.6249C63.9139 12.7363 63.8185 12.819 63.706 12.819H54.3811C53.8125 12.819 53.34 13.3039 53.5299 13.8399C53.7147 14.3618 54.0311 14.8218 54.4789 15.2198C55.1992 15.8601 56.0595 16.1802 57.0598 16.1802C58.4034 16.1802 59.3848 15.7118 60.004 14.7752Z" fill="white"/>
<path d="M30.0834 3.41158C30.0834 3.96387 30.5311 4.41158 31.0834 4.41158H32.0544C32.6067 4.41158 33.0544 4.8593 33.0544 5.41158V6.95266C33.0544 7.50495 32.6067 7.95266 32.0544 7.95266H31.0834C30.5311 7.95266 30.0834 8.40038 30.0834 8.95266V14.1348C30.0834 14.755 30.2235 15.1951 30.5036 15.4552C30.7837 15.7153 31.2238 15.8453 31.824 15.8453C32.4453 15.8453 33.0544 16.3438 33.0544 16.9651V18.358C33.0544 18.7626 32.8117 19.1356 32.4175 19.2266C31.9551 19.3333 31.4172 19.3866 30.8037 19.3866C29.3632 19.3866 28.2227 18.9865 27.3824 18.1862C26.5421 17.366 26.122 16.2455 26.122 14.8251V8.95266C26.122 8.40038 25.6743 7.95266 25.122 7.95266H24.4512C23.8989 7.95266 23.4512 7.50495 23.4512 6.95266V5.42005C23.4512 4.86777 23.8989 4.42005 24.4512 4.42005H25.481C26.0333 4.42005 26.481 3.97234 26.481 3.42005V2.1355C26.4814 2.11402 26.4821 2.09243 26.4821 2.07071V1C26.4821 0.447715 26.9298 0 27.4821 0H29.0834C29.6357 0 30.0834 0.447715 30.0834 1V3.41158Z" fill="#BD35D8"/>
<rect x="33.0547" y="21.3281" width="3.99161" height="33.0546" transform="rotate(90 33.0547 21.3281)" fill="#BD35D8"/>
</svg>
